<svg width="32" height="32" viewBox="0 0 32 32" fill="none" xmlns="http://www.w3.org/2000/svg">
<rect width="32" height="32" rx="16" fill="#F87171"/>
<path fill-rule="evenodd" clip-rule="evenodd" d="M15.9998 7.66675C20.6022 7.66675 24.3332 11.3977 24.3332 16.0001C24.3332 20.6025 20.6022 24.3334 15.9998 24.3334C11.3975 24.3334 7.6665 20.6025 7.6665 16.0001C7.6665 11.3977 11.3975 7.66675 15.9998 7.66675ZM15.9998 9.33341C12.3179 9.33341 9.33317 12.3182 9.33317 16.0001C9.33317 19.682 12.3179 22.6667 15.9998 22.6667C19.6817 22.6667 22.6665 19.682 22.6665 16.0001C22.6665 12.3182 19.6817 9.33341 15.9998 9.33341ZM15.9998 19.3334C16.4601 19.3334 16.8332 19.7065 16.8332 20.1667C16.8332 20.627 16.4601 21.0001 15.9998 21.0001C15.5396 21.0001 15.1665 20.627 15.1665 20.1667C15.1665 19.7065 15.5396 19.3334 15.9998 19.3334ZM15.9998 11.0001C16.4601 11.0001 16.8332 11.3732 16.8332 11.8334V16.8334C16.8332 17.2937 16.4601 17.6667 15.9998 17.6667C15.5396 17.6667 15.1665 17.2937 15.1665 16.8334V11.8334C15.1665 11.3732 15.5396 11.0001 15.9998 11.0001Z" fill="white"/>
</svg>
