<svg width="20" height="20" viewBox="0 0 20 20" fill="none" xmlns="http://www.w3.org/2000/svg">
<path fill-rule="evenodd" clip-rule="evenodd" d="M10 0C15.5228 0 20 4.47715 20 10C20 15.5228 15.5228 20 10 20C4.47715 20 0 15.5228 0 10C0 4.47715 4.47715 0 10 0ZM9.99998 2.00009C5.5817 2.00009 1.99998 5.58182 1.99998 10.0001C1.99998 14.4184 5.5817 18.0001 9.99998 18.0001C14.4183 18.0001 18 14.4184 18 10.0001C18 5.58182 14.4183 2.00009 9.99998 2.00009ZM5.29325 5.29325C5.65417 4.93233 6.22045 4.90456 6.61296 5.20996L6.70725 5.29325L10.0003 8.58625L13.2933 5.29325C13.6843 4.90225 14.3163 4.90225 14.7073 5.29325C15.0682 5.65417 15.0959 6.22045 14.7905 6.61296L14.7073 6.70725L11.4143 10.0003L14.7073 13.2933C15.0983 13.6843 15.0983 14.3163 14.7073 14.7073C14.5123 14.9023 14.2563 15.0003 14.0003 15.0003C13.7869 15.0003 13.5736 14.9322 13.3956 14.7967L13.2933 14.7073L10.0003 11.4143L6.70725 14.7073C6.51225 14.9023 6.25625 15.0003 6.00025 15.0003C5.74425 15.0003 5.48825 14.9023 5.29325 14.7073C4.93233 14.3463 4.90456 13.7801 5.20996 13.3875L5.29325 13.2933L8.58625 10.0003L5.29325 6.70725C4.90225 6.31625 4.90225 5.68425 5.29325 5.29325Z" fill="#475569"/>
</svg>
