<svg width="19" height="15" viewBox="0 0 19 15" fill="none" xmlns="http://www.w3.org/2000/svg">
<path fill-rule="evenodd" clip-rule="evenodd" d="M15.625 0.5C17.0747 0.5 18.25 1.67525 18.25 3.125V11.875C18.25 13.3247 17.0747 14.5 15.625 14.5H3.375C1.92525 14.5 0.75 13.3247 0.75 11.875V3.125C0.75 1.67525 1.92525 0.5 3.375 0.5H15.625ZM16.5 3.412L10.0762 9.0335C9.77379 9.29811 9.33467 9.32016 9.00948 9.09966L8.92381 9.0335L2.5 3.41287V11.875C2.5 12.3582 2.89175 12.75 3.375 12.75H15.625C16.1082 12.75 16.5 12.3582 16.5 11.875V3.412ZM15.17 2.25H3.82825L9.5 7.21233L15.17 2.25Z" fill="#64748B"/>
</svg>
