<svg width="18" height="18" viewBox="0 0 18 18" fill="none" xmlns="http://www.w3.org/2000/svg">
<path fill-rule="evenodd" clip-rule="evenodd" d="M16.4998 15.6667C16.9601 15.6667 17.3332 16.0398 17.3332 16.5001C17.3332 16.9603 16.9601 17.3334 16.4998 17.3334H1.49984C1.0396 17.3334 0.666504 16.9603 0.666504 16.5001C0.666504 16.0398 1.0396 15.6667 1.49984 15.6667H16.4998ZM4.24392 10.0775L13.4106 0.910826C13.711 0.610422 14.1837 0.587314 14.5106 0.841502L14.5891 0.910826L17.0891 3.41083C17.3895 3.71123 17.4126 4.18392 17.1584 4.51083L17.0891 4.58934L7.92243 13.756C7.79219 13.8862 7.62329 13.9689 7.44271 13.9929L7.33317 14.0001H4.83317C4.40581 14.0001 4.05358 13.6784 4.00544 13.2639L3.99984 13.1667V10.6667C3.99984 10.4826 4.06081 10.3047 4.17157 10.1601L4.24392 10.0775L13.4106 0.910826L4.24392 10.0775ZM13.9998 2.67859L5.6665 11.0119V12.3334H6.98799L15.3213 4.00008L13.9998 2.67859Z" fill="#475569"/>
</svg>
