<svg width="20" height="20" viewBox="0 0 20 20" fill="none" xmlns="http://www.w3.org/2000/svg">
<path fill-rule="evenodd" clip-rule="evenodd" d="M17.4998 16.6667C17.9601 16.6667 18.3332 17.0398 18.3332 17.5001C18.3332 17.9603 17.9601 18.3334 17.4998 18.3334H2.49984C2.0396 18.3334 1.6665 17.9603 1.6665 17.5001C1.6665 17.0398 2.0396 16.6667 2.49984 16.6667H17.4998ZM5.24392 11.0775L14.4106 1.91083C14.711 1.61042 15.1837 1.58731 15.5106 1.8415L15.5891 1.91083L18.0891 4.41083C18.3895 4.71123 18.4126 5.18392 18.1584 5.51083L18.0891 5.58934L8.92243 14.756C8.79219 14.8862 8.62329 14.9689 8.44271 14.9929L8.33317 15.0001H5.83317C5.40581 15.0001 5.05358 14.6784 5.00544 14.2639L4.99984 14.1667V11.6667C4.99984 11.4826 5.06081 11.3047 5.17157 11.1601L5.24392 11.0775L14.4106 1.91083L5.24392 11.0775ZM14.9998 3.67859L6.6665 12.0119V13.3334H7.98799L16.3213 5.00008L14.9998 3.67859Z" fill="#475569"/>
</svg>
