<svg width="34" height="34" viewBox="0 0 34 34" fill="none" xmlns="http://www.w3.org/2000/svg">
<path fill-rule="evenodd" clip-rule="evenodd" d="M28.6668 0.333252C31.4283 0.333252 33.6668 2.57183 33.6668 5.33325V28.6666C33.6668 31.428 31.4283 33.6666 28.6668 33.6666H5.3335C2.57207 33.6666 0.333496 31.428 0.333496 28.6666V5.33325C0.333496 2.57183 2.57207 0.333252 5.3335 0.333252H28.6668ZM28.6668 3.66659H5.3335C4.41302 3.66659 3.66683 4.41278 3.66683 5.33325V28.6666C3.66683 29.5871 4.41302 30.3333 5.3335 30.3333H28.6668C29.5873 30.3333 30.3335 29.5871 30.3335 28.6666V5.33325C30.3335 4.41278 29.5873 3.66659 28.6668 3.66659ZM10.3335 20.3333C11.254 20.3333 12.0002 21.0794 12.0002 21.9999V25.3333C12.0002 26.2537 11.254 26.9999 10.3335 26.9999C9.41302 26.9999 8.66683 26.2537 8.66683 25.3333V21.9999C8.66683 21.0794 9.41302 20.3333 10.3335 20.3333ZM17.0002 6.99992C17.9206 6.99992 18.6668 7.74611 18.6668 8.66658V25.3333C18.6668 26.2537 17.9206 26.9999 17.0002 26.9999C16.0797 26.9999 15.3335 26.2537 15.3335 25.3333V8.66658C15.3335 7.74611 16.0797 6.99992 17.0002 6.99992ZM23.6668 13.6666C24.5873 13.6666 25.3335 14.4128 25.3335 15.3333V25.3333C25.3335 26.2537 24.5873 26.9999 23.6668 26.9999C22.7464 26.9999 22.0002 26.2537 22.0002 25.3333V15.3333C22.0002 14.4128 22.7464 13.6666 23.6668 13.6666Z" fill="#EAB308"/>
</svg>
