<svg width="19" height="19" viewBox="0 0 19 19" fill="none" xmlns="http://www.w3.org/2000/svg">
<path fill-rule="evenodd" clip-rule="evenodd" d="M7.36036 7.60304C7.60379 7.44076 7.75 7.16756 7.75 6.875V3.375C7.75 1.92525 6.57475 0.75 5.125 0.75H1.625C1.14175 0.75 0.75 1.14175 0.75 1.625C0.75 10.3235 8.67652 18.25 17.375 18.25C17.8583 18.25 18.25 17.8583 18.25 17.375V13.875C18.25 12.4253 17.0747 11.25 15.625 11.25H12.125C11.8324 11.25 11.5592 11.3962 11.397 11.6396L9.72978 14.1404C7.91397 12.9663 6.32309 11.4155 5.0994 9.63034L4.8596 9.27022L7.36036 7.60304ZM12.5933 13H15.625C16.1083 13 16.5 13.3917 16.5 13.875V16.4697C14.8049 16.3524 13.1506 15.899 11.6077 15.1801L11.2536 15.0095L12.5933 13ZM2.53034 2.5H5.125C5.60825 2.5 6 2.89175 6 3.375V6.40671L3.99046 7.74641C3.17272 6.10364 2.65665 4.32548 2.53034 2.5Z" fill="#64748B"/>
</svg>
