<svg width="16" height="16" viewBox="0 0 16 16" fill="none" xmlns="http://www.w3.org/2000/svg">
<path fill-rule="evenodd" clip-rule="evenodd" d="M7.25 0.5C10.9779 0.5 14 3.52208 14 7.25C14 8.84358 13.4478 10.3082 12.5242 11.4629L15.2803 14.2197C15.5732 14.5126 15.5732 14.9874 15.2803 15.2803C15.01 15.5507 14.5845 15.5715 14.2903 15.3427L14.2197 15.2803L11.4629 12.5242C10.3082 13.4478 8.84358 14 7.25 14C3.52208 14 0.5 10.9779 0.5 7.25C0.5 3.52208 3.52208 0.5 7.25 0.5ZM7.25 2C4.35051 2 2 4.35051 2 7.25C2 10.1495 4.35051 12.5 7.25 12.5C10.1495 12.5 12.5 10.1495 12.5 7.25C12.5 4.35051 10.1495 2 7.25 2Z" fill="#64748B"/>
</svg>
