<svg width="26" height="26" viewBox="0 0 26 26" fill="none" xmlns="http://www.w3.org/2000/svg">
<path fill-rule="evenodd" clip-rule="evenodd" d="M24.25 23C24.9404 23 25.5 23.5596 25.5 24.25C25.5 24.9404 24.9404 25.5 24.25 25.5H1.75C1.05964 25.5 0.5 24.9404 0.5 24.25C0.5 23.5596 1.05964 23 1.75 23H24.25ZM5.86612 14.6161L19.6161 0.866117C20.0667 0.415512 20.7758 0.38085 21.2661 0.762131L21.3839 0.866117L25.1339 4.61612C25.5845 5.06672 25.6192 5.77576 25.2379 6.26612L25.1339 6.38388L11.3839 20.1339C11.1885 20.3292 10.9352 20.4532 10.6643 20.4892L10.5 20.5H6.75C6.10896 20.5 5.58062 20.0174 5.50841 19.3958L5.5 19.25V15.5C5.5 15.2237 5.59146 14.9569 5.7576 14.74L5.86612 14.6161L19.6161 0.866117L5.86612 14.6161ZM20.5 3.51777L8 16.0178V18H9.98223L22.4822 5.5L20.5 3.51777Z" fill="#475569"/>
</svg>
